<svg xmlns="http://www.w3.org/2000/svg" viewBox="0 0 512 512" fill="none">
  <rect width="512" height="512" rx="100" fill="#2d1b4e"/>
  <path d="M256 120C180 120 120 180 120 256C120 332 180 392 256 392C332 392 392 332 392 256C392 180 332 120 256 120ZM256 360C198.6 360 152 313.4 152 256C152 198.6 198.6 152 256 152C313.4 152 360 198.6 360 256C360 313.4 313.4 360 256 360Z" fill="#ffb800"/>
  <path d="M256 184C216.3 184 184 216.3 184 256C184 295.7 216.3 328 256 328C295.7 328 328 295.7 328 256C328 216.3 295.7 184 256 184Z" fill="#10b981"/>
</svg>
